<svg width="67" height="34" viewBox="0 0 67 34" fill="none" xmlns="http://www.w3.org/2000/svg">
<path d="M31.0684 0.0693359V11.4065V33.9999H41.2222L52.1953 16.7262V27.3453L55.4215 22.0357L52.1953 16.7262L55.4316 11.4065L48.5241 0.0693359H31.0684Z" fill="white"/>
<path d="M41.2227 6.09668V16.7259L44.459 11.4062L41.2227 6.09668Z" fill="#BB5400"/>
<path d="M41.2227 22.0361V34.0003L48.8178 22.0361H41.2227Z" fill="#AC6A00"/>
<path d="M66.4658 11.4065L59.5583 0.0693359H48.5246L55.432 11.4065L52.1957 16.7262L55.4219 22.0357L52.1957 27.3453V16.7262L41.2227 33.9999H59.1538L66.4456 22.0357L63.2093 16.7262L66.4658 11.4065Z" fill="#F4BE00"/>
<path d="M52.1958 6.09668V16.7259L55.422 11.4062L52.1958 6.09668Z" fill="#FCD68C"/>
<path d="M31.0685 0.0693359H20.9146L0 33.9999H10.963L20.9146 17.6263V33.9999H31.0685V11.4065V0.0693359Z" fill="#ae0f0a"/>
<mask id="mask0_341_16148" style="mask-type:luminance" maskUnits="userSpaceOnUse" x="23" y="0" width="9" height="12">
<path d="M31.0682 0.0693359H23.7461V11.4065H31.0682V0.0693359Z" fill="white"/>
</mask>
<g mask="url(#mask0_341_16148)">
<path d="M31.0682 0.0693359L23.7461 11.4065H31.0682" fill="#6e0d00"/>
</g>
</svg>
